{
  "accessors": [
    {
      "bufferView": 2,
      "componentType": 5126,
      "count": 627,
      "max": [
        0.40945470333099365,
        0.7076985239982605,
        3.227935791015625
      ],
      "min": [
        -0.38214144110679626,
        0.0002698446623980999,
        1.629988431930542
      ],
      "type": "VEC3"
    },
    {
      "bufferView": 2,
      "byteOffset": 7524,
      "componentType": 5126,
      "count": 627,
      "max": [
        0.9974849224090576,
        0.9999870657920837,
        0.9945874810218811
      ],
      "min": [
        -0.9978883862495422,
        -0.9999514818191528,
        -0.9920459985733032
      ],
      "type": "VEC3"
    },
    {
      "bufferView": 1,
      "componentType": 5126,
      "count": 627,
      "max": [
        0.9874003529548645,
        0.9853717684745789
      ],
      "min": [
        0.004335690755397081,
        0.0126927075907588
      ],
      "type": "VEC2"
    },
    {
      "bufferView": 0,
      "componentType": 5125,
      "count": 2655,
      "type": "SCALAR"
    },
    {
      "bufferView": 2,
      "byteOffset": 15048,
      "componentType": 5126,
      "count": 237,
      "max": [
        0.06336244940757751,
        1.5510568618774414,
        2.8936779499053955
      ],
      "min": [
        -0.0726984441280365,
        0.6083075404167175,
        1.9321619272232056
      ],
      "type": "VEC3"
    },
    {
      "bufferView": 2,
      "byteOffset": 17892,
      "componentType": 5126,
      "count": 237,
      "max": [
        0.9982643723487854,
        0.6714320778846741,
        0.9879586696624756
      ],
      "min": [
        -0.9896363019943237,
        -0.7580627799034119,
        -0.9891818165779114
      ],
      "type": "VEC3"
    },
    {
      "bufferView": 1,
      "byteOffset": 5016,
      "componentType": 5126,
      "count": 237,
      "max": [
        0.9788579940795898,
        0.4506779909133911
      ],
      "min": [
        0.44085121154785156,
        0.013663604855537415
      ],
      "type": "VEC2"
    },
    {
      "bufferView": 0,
      "byteOffset": 10620,
      "componentType": 5125,
      "count": 921,
      "type": "SCALAR"
    },
    {
      "bufferView": 2,
      "byteOffset": 20736,
      "componentType": 5126,
      "count": 33,
      "max": [
        0.05485925078392029,
        1.601401686668396,
        2.3826675415039063
      ],
      "min": [
        -0.07505595684051514,
        1.4669660329818726,
        2.2523021697998047
      ],
      "type": "VEC3"
    },
    {
      "bufferView": 2,
      "byteOffset": 21132,
      "componentType": 5126,
      "count": 33,
      "max": [
        0.9897454380989075,
        0.9205813407897949,
        0.8869048953056335
      ],
      "min": [
        -0.9997726082801819,
        -0.4341086149215698,
        -0.653191089630127
      ],
      "type": "VEC3"
    },
    {
      "bufferView": 1,
      "byteOffset": 6912,
      "componentType": 5126,
      "count": 33,
      "max": [
        0.6853650212287903,
        0.4545965790748596
      ],
      "min": [
        0.44342416524887085,
        0.4056215286254883
      ],
      "type": "VEC2"
    },
    {
      "bufferView": 0,
      "byteOffset": 14304,
      "componentType": 5125,
      "count": 87,
      "type": "SCALAR"
    },
    {
      "bufferView": 2,
      "byteOffset": 21528,
      "componentType": 5126,
      "count": 35,
      "max": [
        0.05463840067386627,
        1.6124019622802734,
        2.3186888694763184
      ],
      "min": [
        -0.07350071519613266,
        1.4944779872894287,
        2.2105298042297363
      ],
      "type": "VEC3"
    },
    {
      "bufferView": 2,
      "byteOffset": 21948,
      "componentType": 5126,
      "count": 35,
      "max": [
        0.9897454380989075,
        0.9573543071746826,
        0.3808915615081787
      ],
      "min": [
        -0.922873318195343,
        -0.680287778377533,
        -0.9357620477676392
      ],
      "type": "VEC3"
    },
    {
      "bufferView": 1,
      "byteOffset": 7176,
      "componentType": 5126,
      "count": 35,
      "max": [
        0.964270293712616,
        0.7006897926330566
      ],
      "min": [
        0.44930338859558105,
        0.4342958927154541
      ],
      "type": "VEC2"
    },
    {
      "bufferView": 0,
      "byteOffset": 14652,
      "componentType": 5125,
      "count": 90,
      "type": "SCALAR"
    }
  ],
  "asset": {
    "extras": {
      "author": "negar (https://sketchfab.com/negar)",
      "license": "CC-BY-4.0 (http://creativecommons.org/licenses/by/4.0/)",
      "source": "https://sketchfab.com/3d-models/cherry-adbaadd6d5a14b1ca3960dc312191d04",
      "title": "Cherry"
    },
    "generator": "Sketchfab-12.65.0",
    "version": "2.0"
  },
  "bufferViews": [
    {
      "buffer": 0,
      "byteLength": 15012,
      "name": "floatBufferViews",
      "target": 34963
    },
    {
      "buffer": 0,
      "byteLength": 7456,
      "byteOffset": 15012,
      "byteStride": 8,
      "name": "floatBufferViews",
      "target": 34962
    },
    {
      "buffer": 0,
      "byteLength": 22368,
      "byteOffset": 22468,
      "byteStride": 12,
      "name": "floatBufferViews",
      "target": 34962
    }
  ],
  "buffers": [
    {
      "byteLength": 44836,
      "uri": "scene.bin"
    }
  ],
  "materials": [
    {
      "doubleSided": true,
      "name": "Cherry",
      "pbrMetallicRoughness": {
        "baseColorFactor": [
          1.0,
          0.0320318,
          0.0,
          1.0
        ],
        "metallicFactor": 0.0,
        "roughnessFactor": 0.9423122769008027
      }
    },
    {
      "doubleSided": true,
      "name": "Green",
      "pbrMetallicRoughness": {
        "baseColorFactor": [
          0.284391,
          0.791523,
          0.070139,
          1.0
        ],
        "metallicFactor": 0.0,
        "roughnessFactor": 0.8452846400698133
      }
    },
    {
      "doubleSided": true,
      "name": "midGreen",
      "pbrMetallicRoughness": {
        "baseColorFactor": [
          0.203434,
          0.287603,
          0.0153015,
          1.0
        ],
        "metallicFactor": 0.0,
        "roughnessFactor": 0.9387508758417854
      }
    },
    {
      "doubleSided": true,
      "name": "Darkgreen",
      "pbrMetallicRoughness": {
        "baseColorFactor": [
          0.15827,
          0.178816,
          0.0144328,
          1.0
        ],
        "metallicFactor": 0.0,
        "roughnessFactor": 0.9601763296607384
      }
    }
  ],
  "meshes": [
    {
      "name": "Cherries_Cherry_0",
      "primitives": [
        {
          "attributes": {
            "NORMAL": 1,
            "POSITION": 0,
            "TEXCOORD_0": 2
          },
          "indices": 3,
          "material": 0,
          "mode": 4
        }
      ]
    },
    {
      "name": "Cherries_Green_0",
      "primitives": [
        {
          "attributes": {
            "NORMAL": 5,
            "POSITION": 4,
            "TEXCOORD_0": 6
          },
          "indices": 7,
          "material": 1,
          "mode": 4
        }
      ]
    },
    {
      "name": "Cherries_midGreen_0",
      "primitives": [
        {
          "attributes": {
            "NORMAL": 9,
            "POSITION": 8,
            "TEXCOORD_0": 10
          },
          "indices": 11,
          "material": 2,
          "mode": 4
        }
      ]
    },
    {
      "name": "Cherries_Darkgreen_0",
      "primitives": [
        {
          "attributes": {
            "NORMAL": 13,
            "POSITION": 12,
            "TEXCOORD_0": 14
          },
          "indices": 15,
          "material": 3,
          "mode": 4
        }
      ]
    }
  ],
  "nodes": [
    {
      "children": [
        1
      ],
      "matrix": [
        1.0,
        0.0,
        0.0,
        0.0,
        0.0,
        2.220446049250313e-16,
        -1.0,
        0.0,
        0.0,
        1.0,
        2.220446049250313e-16,
        0.0,
        0.0,
        0.0,
        0.0,
        1.0
      ],
      "name": "Sketchfab_model"
    },
    {
      "children": [
        2
      ],
      "matrix": [
        1.0,
        0.0,
        0.0,
        0.0,
        0.0,
        0.0,
        1.0,
        0.0,
        0.0,
        -1.0,
        0.0,
        0.0,
        0.0,
        0.0,
        0.0,
        1.0
      ],
      "name": "bcc10513759a4bbba30ad9d958e656ec.fbx"
    },
    {
      "children": [
        3
      ],
      "name": "RootNode"
    },
    {
      "children": [
        4,
        5,
        6,
        7
      ],
      "matrix": [
        100.0,
        0.0,
        0.0,
        0.0,
        0.0,
        99.99999999999866,
        1.6292067073209114e-05,
        0.0,
        0.0,
        -1.6292067073209114e-05,
        99.99999999999866,
        0.0,
        0.0,
        0.0,
        0.0,
        1.0
      ],
      "name": "Cherries"
    },
    {
      "mesh": 0,
      "name": "Cherries_Cherry_0"
    },
    {
      "mesh": 1,
      "name": "Cherries_Green_0"
    },
    {
      "mesh": 2,
      "name": "Cherries_midGreen_0"
    },
    {
      "mesh": 3,
      "name": "Cherries_Darkgreen_0"
    }
  ],
  "scene": 0,
  "scenes": [
    {
      "name": "Sketchfab_Scene",
      "nodes": [
        0
      ]
    }
  ]
}
